<?xml version="1.0" encoding="utf-8"?>
<!-- Generator: Adobe Illustrator 24.1.0, SVG Export Plug-In . SVG Version: 6.00 Build 0)  -->
<svg version="1.1"
	 id="Layer_1" xmlns:cc="http://creativecommons.org/ns#" xmlns:dc="http://purl.org/dc/elements/1.1/" xmlns:inkscape="http://www.inkscape.org/namespaces/inkscape" xmlns:rdf="http://www.w3.org/1999/02/22-rdf-syntax-ns#" xmlns:sodipodi="http://sodipodi.sourceforge.net/DTD/sodipodi-0.dtd" xmlns:svg="http://www.w3.org/2000/svg"
	 xmlns="http://www.w3.org/2000/svg" xmlns:xlink="http://www.w3.org/1999/xlink" x="0px" y="0px" viewBox="0 0 1024 1024"
	 style="enable-background:new 0 0 1024 1024;" xml:space="preserve">
<style type="text/css">
	.st0{fill:#F5F5F5;}
	.st1{fill:#F37321;}
	.st2{fill:#4C4C4C;}
</style>
<rect class="st0" width="1024" height="1024"/>
<path class="st1" d="M300.3,564.8c-14.9,0-28.4-8.6-34.8-22c-1.1-2.3-0.1-5.1,2.2-6.3c2.3-1.1,5.1-0.1,6.3,2.2
	c6.9,14.5,24.2,20.8,38.8,13.9c6.1-2.9,11-7.8,13.9-13.9c1.1-2.3,3.9-3.3,6.3-2.2s3.3,3.9,2.2,6.3c-6.1,13-18.9,21.5-33.3,22H300.3z
	"/>
<path class="st1" d="M333.5,530.2h-66.4c-2.6,0-4.7-2.1-4.7-4.7c0-2.6,2.1-4.7,4.7-4.7h61.3c-2.6-15.9-17.7-26.6-33.5-23.9
	c-9,1.5-16.8,7.1-21,15.2c-1.2,2.3-4.1,3.2-6.4,2s-3.2-4.1-2-6.4c9.9-18.8,33.2-26.1,52-16.2c12.7,6.6,20.6,19.7,20.6,34
	C338.2,528.1,336.1,530.2,333.5,530.2L333.5,530.2z"/>
<path class="st2" d="M394.9,542.7h-24.7v-13.6h17.5c2.3,0,4.2-1.9,4.2-4.2s-1.9-4.2-4.2-4.2h-17.5v-11.8h22.9c2.3,0,4.2-1.9,4.2-4.2
	c0-2.3-1.9-4.2-4.2-4.2H366c-2.3,0-4.2,1.9-4.2,4.2l0,0l0,0v42.4c0,2.3,1.9,4.2,4.2,4.2l0,0h28.9c2.3,0,4.2-1.9,4.2-4.3
	C399.1,544.6,397.2,542.7,394.9,542.7z"/>
<path class="st2" d="M693.8,542.7h-24.6v-13.6h17.5c2.3,0,4.2-1.9,4.2-4.2s-1.9-4.2-4.2-4.2h-17.5v-11.8H692c2.3,0,4.2-1.9,4.2-4.2
	c0-2.3-1.9-4.2-4.2-4.2h-27.1c-2.3,0-4.2,1.9-4.2,4.2l0,0l0,0v42.4c0,2.3,1.9,4.2,4.2,4.2l0,0h28.9c2.3,0,4.2-1.9,4.3-4.2
	C698.1,544.6,696.2,542.7,693.8,542.7L693.8,542.7z"/>
<path class="st2" d="M605.9,545.3l-4.9-11.6l0,0L588.1,503v-0.1l-0.1-0.2l-0.1-0.2l-0.1-0.2l-0.1-0.2l-0.1-0.2l-0.1-0.2l-0.1-0.2
	l-0.2-0.1l-0.2-0.1l-0.2-0.1l-0.2-0.1l-0.2-0.1l-0.2-0.1l-0.2-0.1h-0.1l-0.2-0.1h-0.4c-0.3-0.1-0.6-0.1-0.9-0.1h-0.2
	c-0.3,0-0.7,0.1-1,0.1h-0.7l-0.2,0.1l-0.2,0.1L582,501l-0.2,0.1l-0.2,0.1l-0.2,0.1l-0.1,0.1l-0.1,0.2l-0.1,0.2L581,502l-0.1,0.2
	l-0.1,0.2l-0.1,0.2l-0.1,0.2v0.1l-13.2,30.7l0,0l-5,11.7c-1.1,2.1-0.2,4.6,1.9,5.7c2.1,1.1,4.6,0.2,5.7-1.9c0.1-0.2,0.2-0.4,0.2-0.5
	l3.8-9.1h20.3l3.8,9.1c1.1,2.1,3.6,2.9,5.7,1.9C605.7,549.5,606.6,547.3,605.9,545.3L605.9,545.3L605.9,545.3z M577.5,531l6.6-15.6
	l6.6,15.6H577.5z"/>
<path class="st2" d="M447.2,551.2h-1.1c-1.3,0-2.5-0.6-3.3-1.6l-26.4-33.9V547c0,2.3-1.9,4.2-4.2,4.2s-4.2-1.9-4.2-4.2v-42.4
	c0-2.3,1.9-4.2,4.2-4.2l0,0h0.9c1.3,0,2.5,0.6,3.3,1.6l26.5,34v-31.4c0-2.3,1.9-4.2,4.2-4.2s4.2,1.9,4.2,4.2V547
	C451.4,549.3,449.5,551.2,447.2,551.2z"/>
<path class="st2" d="M548.9,500.3c-2.3,0-4.2,1.9-4.2,4.2l0,0l0,0v16h-24.2v-16c0-2.3-1.9-4.2-4.2-4.2s-4.2,1.9-4.2,4.2v20.3l0,0
	v22.1c0,2.3,1.9,4.2,4.2,4.2s4.2-1.9,4.2-4.2V529h24.2v17.9c0,2.3,1.9,4.2,4.2,4.2s4.2-1.9,4.2-4.2v-42.4
	C553.2,502.2,551.3,500.3,548.9,500.3z"/>
<path class="st2" d="M631.3,552.1c-6.5,0-12.8-2.5-17.6-7.1c-1.6-1.7-1.5-4.4,0.2-6c1.6-1.5,4.2-1.5,5.8,0c4.2,4,10.3,5.5,15.9,3.9
	c2.4-0.6,4.2-2.4,4.8-4.8c0.4-2.4-0.9-4.7-8.4-7.8l-1.8-0.8c-0.5-0.2-1-0.5-1.8-0.7c-4.7-1.9-14.6-5.9-14.5-15
	c0.2-5.6,3.8-10.6,9.1-12.5c8.3-3,17.6-1,23.8,5.3c1.7,1.6,1.8,4.3,0.2,6s-4.3,1.8-6,0.2l0,0l-0.2-0.2c-3.8-3.8-9.5-5.2-14.7-3.4
	c-2.2,0.6-3.7,2.6-3.7,4.8c0,3.3,5.9,5.7,9.1,7c0.9,0.4,1.7,0.7,2.4,1l1.4,0.6c4.5,1.9,15.1,6.5,13.5,17c-0.9,5.6-5,10.1-10.5,11.6
	C636,551.8,633.7,552.2,631.3,552.1z"/>
<path class="st2" d="M469.1,551.2c-2.3,0-4.2-1.9-4.2-4.2l0,0l0,0v-42.4c0-2.3,1.9-4.2,4.2-4.2l0,0h17.4c9.5,0,16.4,6.7,16.4,15.9
	c0,9.2-6.9,15.7-16.4,15.7h-13.3v14.9C473.2,549.2,471.4,551.1,469.1,551.2z M473.2,523.6h13.2c4.8,0,7.9-2.9,7.9-7.4
	s-3.1-7.4-7.9-7.4h-13.2V523.6z"/>
</svg>
